<?xml version="1.0" encoding="utf-8"?>
<!-- Generator: Adobe Illustrator 22.1.0, SVG Export Plug-In . SVG Version: 6.00 Build 0)  -->
<svg version="1.1" id="Слой_1" xmlns="http://www.w3.org/2000/svg" xmlns:xlink="http://www.w3.org/1999/xlink" x="0px" y="0px"
	 viewBox="0 0 6289 1080" style="enable-background:new 0 0 6289 1080;" xml:space="preserve">
<style type="text/css">
	.st0{display:none;}
	.st1{display:inline;}
	.st2{font-family:'VarelaRound-Regular';}
	.st3{font-size:1132px;}
	.st4{letter-spacing:-32;}
	.st5{fill:#000000;}
	.st6{fill:none;stroke:#000000;stroke-width:40;stroke-linejoin:round;stroke-miterlimit:10;}
	.st7{fill:none;stroke:#000000;stroke-width:40;stroke-linecap:round;stroke-linejoin:bevel;stroke-miterlimit:10;}
	.st8{display:none;fill:none;stroke:#0E0F0F;stroke-width:40;stroke-miterlimit:10;}
</style>
<g id="nmjSSS.tif" class="st0">
	
		<image style="display:inline;overflow:visible;" width="292" height="362" id="Layer_0_1_" xlink:href="DE7526BAE3733F77.png"  transform="matrix(3.9363 0 0 3.9363 -66.5691 -29.1513)">
	</image>
</g>
<g class="st0">
	<path class="st1" d="M1145.6,939h-123.8V128.9h226c93,0,164.7,22.6,215.2,67.9c50.5,45.3,75.7,106.8,75.7,184.5
		c-0.8,56.9-15.2,105.2-43.3,144.8c-28,39.7-66.9,68.3-116.6,86L1590.4,939h-147.8l-189.9-307.7h-107V939z M1251.4,232.2h-105.8
		v295.7h111.8c51.3,0,90.1-13.4,116.6-40.3s39.7-62.7,39.7-107.6C1413.7,281.5,1359.6,232.2,1251.4,232.2z"/>
	<path class="st1" d="M2146.9,409.5c50.5,58.9,75.7,134,75.7,225.4c0,91.4-25.8,166.7-77.5,226s-122.8,88.9-213.3,88.9
		c-89.8,0-160.3-29.2-211.6-87.7s-76.9-132.6-76.9-222.4c0-91.3,26.4-167.3,79.3-227.8s122.6-90.8,209.2-90.8
		C2024.7,321.2,2096.4,350.6,2146.9,409.5z M1765.9,636.1c0,60.1,14.8,110.8,44.5,152.1c29.6,41.3,70.1,61.9,121.4,61.9
		c54.5,0,96-20,124.4-60.1c28.4-40.1,42.7-90.9,42.7-152.7c0-63.3-13.6-115.2-40.9-155.7s-69.7-60.7-127.4-60.7
		c-52.1,0-92.6,20.6-121.4,61.9C1780.3,524.1,1765.9,575.2,1765.9,636.1z"/>
	<path class="st1" d="M2828.4,939h-117.8V834.4c-32.1,74.5-95.4,111.8-189.9,111.8c-60.1,0-107.8-17.8-143-53.5
		c-35.3-35.7-52.9-84.8-52.9-147.2V329.6h119v387c0,41.7,10.2,73.5,30.7,95.6s48.7,33,84.7,33c45.7,0,82.3-16,110-48.1
		c27.6-32.1,41.5-77.3,41.5-135.8V329.6h117.8V939z"/>
	<path class="st1" d="M3475.1,939h-117.8V554.4c0-42.5-10.6-74.9-31.9-97.4s-49.5-33.7-84.7-33.7c-41.7,0-77.3,16.2-107,48.7
		s-44.5,77.9-44.5,136.4V939h-117.8V329.6h117.8v104.6c36.1-75.3,99.4-113,189.9-113c60.1,0,107.8,18.4,143,55.3
		c35.2,36.9,52.9,86.9,52.9,150.2V939z"/>
	<path class="st1" d="M4142.2,939h-119v-92.5c-42.5,67.3-104.6,101-186.3,101c-80.1,0-143.4-30.2-189.9-90.8
		c-46.5-60.5-69.7-133.6-69.7-219.4c0-95.3,24.4-171.9,73.3-229.6c48.9-57.7,111.8-86.5,188.7-86.5c79.3,0,140.6,33.7,183.9,101
		v-333h119V939z M3698.7,639.7c0,60.9,15,110.2,45.1,147.8c30,37.7,67.9,56.5,113.6,56.5c46.5,0,85.7-17.6,117.8-52.9
		c32-35.2,48.1-88.9,48.1-161.1c0-69.7-16.6-121.4-49.9-155.1s-70.7-50.5-112.4-50.5c-47.3,0-86.2,18.6-116.6,55.9
		C3713.9,517.7,3698.7,570.8,3698.7,639.7z"/>
	<path class="st1" d="M4739.6,906.5c-44.9,25.7-104.2,38.5-177.9,38.5c-94.6,0-169.9-28.4-226-85.3
		c-56.1-56.9-84.1-131.4-84.1-223.6c0-97.8,25.6-174.5,76.9-230.2s116.6-83.5,195.9-83.5c77.7,0,139.4,24.2,185.1,72.7
		c45.7,48.5,68.5,118.4,68.5,209.8c0,24.8-2.4,50.9-7.2,78.1h-400.3c8,52.9,30.4,93.4,67.3,121.4c36.9,28,83.3,42.1,139.4,42.1
		c64.9,0,119-15.2,162.3-45.7V906.5z M4526.8,419.7c-40.1,0-74.5,14.6-103.4,43.9s-46.9,71.5-54.1,126.8h294.5v-21.6
		c-1.6-45.7-14-81.9-37.3-108.8S4570.1,419.7,4526.8,419.7z"/>
	<path class="st1" d="M5323.7,915c-39.3,24-89.3,36.1-150.2,36.1c-95.4,0-171.5-30-228.4-90.1c-56.9-60.1-85.3-135-85.3-224.8
		c0-87.3,28.6-162.1,85.9-224.2c57.3-62.1,134.8-93.2,232.6-93.2c52.9,0,101.4,11.2,145.4,33.7v108.2
		c-39.3-24.8-83.7-37.3-133.4-37.3c-63.3,0-114,20-152,60.1s-57.1,91.3-57.1,153.8c1.6,61.7,20.4,112.4,56.5,152.1
		s86.5,59.5,151.5,59.5c48.1,0,93-13.2,134.6-39.7V915z"/>
	<path class="st1" d="M5554.5,939h-117.8V97.6h117.8V939z M5695.2,620.5L5934.3,939h-140.6l-234.4-318.5l229.6-290.9h138.2
		L5695.2,620.5z"/>
</g>
<text transform="matrix(1 0 0 1 894.0832 913.0001)" class="st0 st2 st3 st4">Roundeck</text>
<g>
	<path class="st5" d="M1108.6,904c-9.8-9.8-14.7-21.9-14.7-36.2V174.9c0-14.3,4.9-26.6,14.7-36.8s21.9-15.3,36.2-15.3h263.8
		c102.6,0,179.6,21.1,230.9,63.4c51.3,42.3,77,97.7,77,166.4c0,45.3-12.6,86.6-37.9,124c-25.3,37.4-62.1,64.3-110.4,80.9
		c54.3,14.3,91.5,48.1,111.5,101.3s30,105.5,30,156.8v52.1c0,14.3-4.9,26.4-14.7,36.2c-9.8,9.8-21.9,14.7-36.2,14.7
		c-15.8,0-28.5-4.7-37.9-14.1c-9.4-9.4-14.2-21.7-14.2-36.8v-34c0-37.7-3.4-72.6-10.2-104.7c-6.8-32.1-23-60.8-48.7-86
		s-64.5-37.9-116.6-37.9h-234.3v262.6c0,14.3-5.1,26.4-15.3,36.2c-10.2,9.8-22.5,14.7-36.8,14.7
		C1130.5,918.7,1118.4,913.8,1108.6,904z M1401.8,507.8c64.9,0,116.4-12.8,154.5-38.5s57.2-61.9,57.2-108.7
		c0-45.3-16.4-80-49.2-104.1c-32.8-24.1-88.9-36.2-168.1-36.2h-199.2v287.5H1401.8z"/>
	<path class="st5" d="M1948.5,887c-43.8-24.9-77.5-60.2-101.3-105.8c-23.8-45.7-35.7-97.9-35.7-156.8c0-58.9,11.9-111.1,35.7-156.8
		c23.8-45.7,57.5-80.9,101.3-105.8c43.8-24.9,94.7-37.4,152.8-37.4c57.3,0,107.9,12.5,151.7,37.4c43.8,24.9,77.7,60.2,101.9,105.8
		s36.2,97.9,36.2,156.8c0,58.9-12.1,111.1-36.2,156.8S2296.8,862.1,2253,887c-43.8,24.9-94.3,37.3-151.7,37.3
		C2043.2,924.3,1992.3,911.9,1948.5,887z M2190.2,808.9c28.3-14.3,51.7-37,70.2-67.9c18.5-30.9,27.7-70.2,27.7-117.7
		c0-46.8-9.2-85.6-27.7-116.6c-18.5-30.9-41.9-53.4-70.2-67.4s-57.9-21-88.9-21c-31.7,0-61.7,7-90,21s-51.5,36.4-69.6,67.4
		c-18.1,30.9-27.2,69.8-27.2,116.6c0,47.6,9,86.8,27.2,117.7c18.1,30.9,41.3,53.6,69.6,67.9s58.3,21.5,90,21.5
		C2132.3,830.4,2161.9,823.2,2190.2,808.9z"/>
	<path class="st5" d="M2590.9,894.9c-30.6-19.6-54-46.4-70.2-80.4c-16.2-34-24.3-71.3-24.3-112.1V381c0-14.3,5.1-26.4,15.3-36.2
		s22.5-14.7,36.8-14.7c14.3,0,26.4,4.9,36.2,14.7s14.7,21.9,14.7,36.2v310.2c0,92.1,41.5,138.1,124.5,138.1
		c37.7,0,71.5-9.8,101.3-29.4s57.9-46,84.3-79.2V381c0-14.3,5.1-26.4,15.3-36.2s22.4-14.7,36.8-14.7s26.4,4.9,36.2,14.7
		s14.7,21.9,14.7,36.2v485.6c0,14.3-4.9,26.6-14.7,36.8s-21.9,15.3-36.2,15.3s-26.6-5.1-36.8-15.3s-15.3-22.4-15.3-36.8v-46.4
		c-28.7,31.7-59.6,57-92.8,75.8c-33.2,18.9-72.5,28.3-117.7,28.3C2657.5,924.3,2621.5,914.5,2590.9,894.9z"/>
	<path class="st5" d="M3173.3,904c-9.8-9.8-14.7-21.9-14.7-36.2V382.1c0-14.3,4.9-26.6,14.7-36.8s21.9-15.3,36.2-15.3
		c14.3,0,26.6,5.1,36.8,15.3s15.3,22.5,15.3,36.8v46.4c28.7-31.7,59.6-57,92.8-75.8c33.2-18.9,72.4-28.3,117.7-28.3
		c41.5,0,77.5,9.8,108.1,29.4s54,46.4,70.2,80.4c16.2,34,24.3,71.3,24.3,112.1v321.5c0,14.3-5.1,26.4-15.3,36.2
		c-10.2,9.8-22.5,14.7-36.8,14.7s-26.4-4.9-36.2-14.7c-9.8-9.8-14.7-21.9-14.7-36.2V557.5c0-92.1-41.5-138.1-124.5-138.1
		c-37.8,0-71.5,9.8-101.3,29.4s-57.9,46-84.3,79.2v339.6c0,14.3-5.1,26.4-15.3,36.2c-10.2,9.8-22.5,14.7-36.8,14.7
		C3195.2,918.7,3183.1,913.8,3173.3,904z"/>
	<path class="st5" d="M3921,888.7c-41.9-23.8-75.8-58.5-101.9-104.1s-39-99-39-160.2s13-114.5,39-160.2s60-80.4,101.9-104.1
		c41.9-23.8,86.2-35.7,133-35.7c74,0,138.5,28.7,193.6,86V133c0-15.1,5.1-27.5,15.3-37.3s22.4-14.7,36.8-14.7s26.4,5.1,36.2,15.3
		s14.7,22.5,14.7,36.8v734.7c0,14.3-4.9,26.4-14.7,36.2c-9.8,9.8-21.9,14.7-36.2,14.7s-26.6-4.9-36.8-14.7
		c-10.2-9.8-15.3-21.9-15.3-36.2v-29.4c-55.1,57.4-119.6,86-193.6,86C4007.2,924.3,3962.9,912.4,3921,888.7z M4166.7,804.9
		c30.6-15.5,57.5-36,81-61.7V505.5c-23.4-25.7-50.4-46.2-81-61.7s-63.2-23.2-97.9-23.2c-55.8,0-100.8,17.7-134.7,53.2
		s-50.9,85.7-50.9,150.6s17,115.1,50.9,150.5s78.9,53.2,134.7,53.2C4103.5,828.1,4136.1,820.4,4166.7,804.9z"/>
	<path class="st5" d="M4539.1,845.6c-51.7-52.4-77.5-126.2-77.5-221.3c0-53.6,9.8-103,29.4-148.3s49.8-81.9,90.6-109.8
		s90.9-41.9,150.6-41.9c55.8,0,104.1,13,144.9,39.1s71.7,60.8,92.8,104.1s31.7,90.8,31.7,142.1c0,14.3-4.7,26.4-14.2,36.2
		s-22.1,14.7-37.9,14.7h-383.8c6,52.8,25.6,94,58.9,123.4c33.2,29.4,79.6,44.1,139.2,44.1c31.7,0,59.4-3,83.2-9
		c23.8-6,47-14.7,69.6-26c6-3,12.8-4.5,20.4-4.5c12.1,0,22.6,4.2,31.7,12.5c9.1,8.3,13.6,18.9,13.6,31.7c0,16.6-9.8,30.6-29.4,41.9
		c-29.4,16.6-58.5,29.1-87.2,37.4c-28.7,8.3-65.7,12.4-110.9,12.4C4662.7,924.3,4590.8,898.1,4539.1,845.6z M4899.6,576.8
		c-2.3-37-11.9-67.9-28.9-92.8s-37.9-43.2-62.8-54.9s-50.2-17.5-75.8-17.5c-25.7,0-51,5.9-75.9,17.5s-45.7,30-62.2,54.9
		c-16.6,24.9-26,55.9-28.3,92.8H4899.6z"/>
	<path class="st5" d="M5221.1,888.1c-46-24.1-82.8-58.9-110.4-104.1c-27.5-45.3-41.3-98.5-41.3-159.6s13.8-114.3,41.3-159.6
		c27.5-45.3,64.3-80,110.4-104.1s96.2-36.2,150.6-36.2c40,0,74.5,5.1,103.6,15.3c29,10.2,56,23.2,80.9,39.1
		c15.1,9.8,22.6,23,22.6,39.6c0,11.3-4.3,21.7-13,31.1c-8.7,9.4-18.7,14.1-30,14.1c-8.3,0-16.6-2.3-24.9-6.8
		c-24.9-12.8-46.2-22.1-64-27.7s-39.8-8.5-66.2-8.5c-64.9,0-115.9,18.7-152.8,56c-37,37.4-55.5,86.6-55.5,147.7
		s18.5,110.4,55.5,147.7c37,37.4,87.9,56,152.8,56c26.4,0,48.5-2.8,66.2-8.5s39.1-14.9,64-27.7c8.3-4.5,16.6-6.8,24.9-6.8
		c11.3,0,21.3,4.7,30,14.2c8.7,9.4,13,19.8,13,31.1c0,16.6-7.5,29.8-22.6,39.6c-24.9,15.8-51.9,28.9-80.9,39
		c-29.1,10.2-63.6,15.3-103.6,15.3C5317.3,924.3,5267.1,912.2,5221.1,888.1z"/>
	<path class="st5" d="M5689.7,904c-9.8-9.8-14.7-21.9-14.7-36.2V133c0-14.3,4.9-26.6,14.7-36.8S5711.6,81,5726,81
		c14.3,0,26.6,5.1,36.8,15.3s15.3,22.5,15.3,36.8v463l269.4-249c11.3-9.8,22.6-14.7,34-14.7c17.4,0,30,4.9,37.9,14.7
		s11.9,21.5,11.9,35.1c0,12.8-6.4,25.7-19.2,38.5l-163,146l204.9,271.7c7.5,9.8,11.3,20,11.3,30.6c0,15.1-4.9,27.2-14.7,36.2
		c-9.8,9-22.2,13.6-37.3,13.6c-7.6,0-15.1-1.9-22.7-5.7s-14-9-19.2-15.8l-194.7-264.9l-98.5,89.4v146c0,14.3-5.1,26.4-15.3,36.2
		c-10.2,9.8-22.5,14.7-36.8,14.7C5711.6,918.7,5699.6,913.8,5689.7,904z"/>
</g>
<g class="st0">
	<path class="st1" d="M1161.4,918h-121.3V124h221.5c91.1,0,161.4,22.2,210.9,66.6s74.2,104.6,74.2,180.8
		c-0.8,55.8-14.9,103.1-42.4,142c-27.5,38.9-65.6,67-114.3,84.2L1597.3,918h-144.9l-186.1-301.6h-104.8V918z M1265.1,225.3h-103.7
		v289.8H1271c50.3,0,88.4-13.1,114.3-39.5s38.9-61.5,38.9-105.4C1424.1,273.6,1371.1,225.3,1265.1,225.3z"/>
	<path class="st1" d="M2142.7,399.1c49.5,57.7,74.2,131.3,74.2,220.9s-25.3,163.4-76,221.5c-50.7,58.1-120.4,87.2-209.1,87.2
		c-88,0-157.1-28.7-207.3-86c-50.3-57.3-75.4-130-75.4-217.9c0-89.5,25.9-163.9,77.8-223.2c51.8-59.3,120.2-88.9,205-88.9
		C2022.9,312.5,2093.2,341.4,2142.7,399.1z M1769.3,621.1c0,58.9,14.5,108.6,43.6,149s68.7,60.7,119,60.7c53.4,0,94-19.6,121.9-58.9
		s41.8-89.1,41.8-149.6c0-62-13.4-112.9-40.1-152.5s-68.3-59.5-124.9-59.5c-51.1,0-90.7,20.2-119,60.7
		C1783.4,511.4,1769.3,561.5,1769.3,621.1z"/>
	<path class="st1" d="M2810.6,918h-115.4V815.5c-31.4,73-93.5,109.5-186.1,109.5c-58.9,0-105.6-17.5-140.2-52.4
		c-34.6-34.9-51.8-83-51.8-144.3V320.8h116.6v379.3c0,40.8,10,72.1,30,93.7c20,21.6,47.7,32.4,83,32.4c44.8,0,80.7-15.7,107.8-47.1
		s40.7-75.8,40.7-133.1V320.8h115.4V918z"/>
	<path class="st1" d="M3444.4,918h-115.4V541c0-41.6-10.4-73.4-31.2-95.4c-20.8-22-48.5-33-83-33c-40.8,0-75.8,15.9-104.9,47.7
		s-43.6,76.4-43.6,133.7v324h-115.4V320.8h115.4v102.5c35.3-73.8,97.4-110.7,186.1-110.7c58.9,0,105.6,18.1,140.2,54.2
		c34.5,36.1,51.8,85.2,51.8,147.2V918z"/>
	<path class="st1" d="M4098.1,918h-116.6v-90.7c-41.6,66-102.5,99-182.6,99c-78.5,0-140.6-29.6-186.1-88.9
		c-45.6-59.3-68.3-131-68.3-215c0-93.5,24-168.5,71.9-225c47.9-56.5,109.5-84.8,185-84.8c77.7,0,137.8,33,180.2,98.9V85.2h116.6V918
		z M3663.5,624.7c0,59.7,14.7,108,44.2,144.9c29.4,36.9,66.5,55.4,111.3,55.4c45.5,0,84-17.3,115.5-51.8
		c31.4-34.5,47.1-87.2,47.1-157.9c0-68.3-16.3-119-48.9-152s-69.3-49.5-110.1-49.5c-46.3,0-84.4,18.3-114.3,54.8
		C3678.4,505.1,3663.5,557.1,3663.5,624.7z"/>
	<path class="st1" d="M4683.6,886.2c-44,25.1-102.1,37.7-174.3,37.7c-92.7,0-166.5-27.9-221.5-83.6c-55-55.8-82.5-128.8-82.5-219.1
		c0-95.8,25.1-171,75.4-225.6c50.2-54.6,114.3-81.9,192-81.9c76.2,0,136.6,23.8,181.4,71.3c44.8,47.5,67.2,116,67.2,205.6
		c0,24.3-2.4,49.9-7.1,76.6h-392.3c7.8,51.8,29.8,91.5,66,119c36.1,27.5,81.7,41.2,136.6,41.2c63.6,0,116.6-14.9,159-44.8V886.2z
		 M4475.1,409.1c-39.3,0-73,14.3-101.3,43c-28.3,28.7-46,70.1-53,124.3h288.6v-21.2c-1.6-44.8-13.8-80.3-36.5-106.6
		S4517.5,409.1,4475.1,409.1z"/>
	<path class="st1" d="M5256.1,894.4c-38.5,23.6-87.6,35.3-147.2,35.3c-93.5,0-168.1-29.4-223.8-88.3
		c-55.8-58.9-83.6-132.3-83.6-220.3c0-85.6,28.1-158.8,84.2-219.7s132.1-91.3,228-91.3c51.8,0,99.3,11,142.5,33v106
		c-38.5-24.3-82.1-36.5-130.8-36.5c-62,0-111.7,19.6-149,58.9c-37.3,39.3-56,89.5-56,150.8c1.6,60.5,20,110.1,55.4,149
		s84.8,58.3,148.4,58.3c47.1,0,91.1-13,131.9-38.9V894.4z"/>
	<path class="st1" d="M5482.3,918h-115.4V93.4h115.4V918z M5620.1,605.8L5854.5,918h-137.8L5487,605.8l225-285.1h135.5L5620.1,605.8
		z"/>
</g>
<g id="ракета">
	<g>
		<path class="st5" d="M454.6,163.3c0,0,108.4,108.4,108.4,242c0,110.6-78.6,232.8-78.6,232.8l-57.7,1.1c0,0-80.5-121.8-80.5-233.9
			C346.1,271.7,454.6,163.3,454.6,163.3 M454.6,123.3c-10.2,0-20.5,3.9-28.3,11.7c-4.9,4.9-120.1,121.8-120.1,270.3
			c0,122.7,83.5,250.6,87.1,256c7.4,11.2,20,18,33.4,18c0.3,0,0.5,0,0.8,0l57.7-1.1c13.3-0.3,25.6-7.1,32.9-18.3
			c3.5-5.4,85-133.5,85-254.5c0-148.5-115.2-265.4-120.1-270.3C475,127.2,464.8,123.3,454.6,123.3L454.6,123.3z"/>
	</g>
	<path class="st6" d="M362.1,556.4l18.8,13.5c42.8,29.4,104.4,30.8,146.4,0.3l18.5-12"/>
	<path class="st7" d="M535.8,256.7l-15.3,10.8c-38.9,27.5-90.9,27.5-129.8,0l-15.3-10.8"/>
	<g>
		<path class="st5" d="M454.1,373.4c16,0,29,13,29,29s-13,29-29,29s-29-13-29-29S438.1,373.4,454.1,373.4 M454.1,333.4
			c-38,0-69,31-69,69s31,69,69,69s69-31,69-69S492.2,333.4,454.1,333.4L454.1,333.4z"/>
	</g>
	<g>
		<path class="st5" d="M325,520.4l12.7,39.4l-30.2,33.6C307.5,593.5,287.6,543,325,520.4 M325,480.4c-7.2,0-14.4,2-20.7,5.8
			c-15.6,9.4-27.5,23.1-34.5,39.4c-5.3,12.3-7.8,25.9-7.5,40.6c0.4,21.5,6.8,38.7,8,41.9c5.1,12.9,16.5,22.3,30.1,24.7
			c2.4,0.4,4.7,0.6,7.1,0.6c11.3,0,22.1-4.8,29.8-13.3l30.2-33.6c9.5-10.6,12.6-25.4,8.3-38.9l-12.7-39.4
			c-3.7-11.7-12.6-21-24.1-25.2C334.5,481.2,329.7,480.4,325,480.4L325,480.4z"/>
	</g>
	<g>
		<path class="st5" d="M583.9,520.4c37.4,22.6,17.5,73.1,17.5,73.1l-30.2-33.6L583.9,520.4 M583.9,480.4c-4.7,0-9.5,0.8-14,2.5
			c-11.5,4.3-20.3,13.6-24.1,25.2l-12.7,39.4c-4.3,13.5-1.2,28.3,8.3,38.9l30.2,33.6c7.7,8.5,18.5,13.3,29.8,13.3
			c2.4,0,4.7-0.2,7.1-0.6c13.7-2.5,25.1-11.8,30.1-24.7c1.3-3.2,7.6-20.4,8-41.9c0.3-14.7-2.2-28.3-7.5-40.6
			c-7-16.3-19-30-34.5-39.4C598.3,482.4,591.1,480.4,583.9,480.4L583.9,480.4z"/>
	</g>
	<path class="st6" d="M416.6,890.5c-0.2-2.2-0.6-4.4-1.1-6.6c-2.2-9.4-10.7-22.1-22.2-29.2c-11.5-7.1-25.9-8.6-34.9-8.6
		c-4.2,0-8.3,0.7-12.1,1.9c-7.4-21.5-27.8-36.9-51.8-36.9c-22.2,0-41.2,13.2-49.8,32.1c-5.7-2-11.8-3.1-18.2-3.1
		c-10.3,0-24.3,7.3-32.5,16.9c-9.9,11.5-16,26.4-19.3,36"/>
	<path class="st6" d="M494.8,890.5c0.2-2.2,0.6-4.4,1.1-6.6c2.2-9.4,10.7-22.1,22.2-29.2c11.5-7.1,25.9-8.6,34.9-8.6
		c4.2,0,8.3,0.7,12.1,1.9c7.4-21.5,27.8-36.9,51.8-36.9c22.2,0,41.2,13.2,49.8,32.1c5.7-2,11.8-3.1,18.2-3.1
		c10.3,0,24.3,7.3,32.5,16.9c9.9,11.5,16,26.4,19.3,36"/>
	<line class="st7" x1="109.7" y1="900" x2="801.7" y2="898"/>
	<line class="st7" x1="394.6" y1="750.6" x2="394.4" y2="714.8"/>
	<line class="st7" x1="454.6" y1="781" x2="454.4" y2="745.2"/>
	<line class="st7" x1="514.6" y1="750.5" x2="514.4" y2="714.7"/>
</g>
<line class="st8" x1="206.7" y1="939.7" x2="881.8" y2="937.8"/>
<line class="st8" x1="206.7" y1="102.8" x2="881.8" y2="102.8"/>
</svg>
